<svg width="147" height="32" viewBox="0 0 147 32" fill="none" xmlns="http://www.w3.org/2000/svg">
<path d="M42.2917 3H32.7084C30.062 3 27.9167 5.23858 27.9167 8V18C27.9167 20.7614 30.062 23 32.7084 23H42.2917C44.9381 23 47.0834 20.7614 47.0834 18V8C47.0834 5.23858 44.9381 3 42.2917 3Z" stroke="black" stroke-opacity="0.67" stroke-linecap="round" stroke-linejoin="round"/>
<path d="M41.3333 12.3701C41.4516 13.2023 41.3154 14.0523 40.944 14.7991C40.5727 15.5459 39.9851 16.1515 39.2649 16.5297C38.5447 16.908 37.7285 17.0397 36.9325 16.906C36.1364 16.7723 35.401 16.3801 34.8309 15.7852C34.2608 15.1903 33.8849 14.4229 33.7568 13.5923C33.6287 12.7616 33.7549 11.91 34.1174 11.1584C34.4799 10.4069 35.0603 9.7938 35.7759 9.4063C36.4916 9.0188 37.3062 8.87665 38.1038 9.00006C38.9173 9.12594 39.6705 9.52152 40.252 10.1284C40.8336 10.7352 41.2127 11.5211 41.3333 12.3701Z" stroke="black" stroke-opacity="0.67" stroke-linecap="round" stroke-linejoin="round"/>
<path d="M42.7708 7.5H42.7808" stroke="black" stroke-opacity="0.67" stroke-width="2" stroke-linecap="round" stroke-linejoin="round"/>
<path d="M74 3H71C69.6739 3 68.4021 3.52678 67.4645 4.46447C66.5268 5.40215 66 6.67392 66 8V11H63V15H66V23H70V15H73L74 11H70V8C70 7.73478 70.1054 7.48043 70.2929 7.29289C70.4804 7.10536 70.7348 7 71 7H74V3Z" stroke="black" stroke-opacity="0.67" stroke-linecap="round" stroke-linejoin="round"/>
<path d="M103 9C104.591 9 106.117 9.63214 107.243 10.7574C108.368 11.8826 109 13.4087 109 15V22H105V15C105 14.4696 104.789 13.9609 104.414 13.5858C104.039 13.2107 103.53 13 103 13C102.47 13 101.961 13.2107 101.586 13.5858C101.211 13.9609 101 14.4696 101 15V22H97V15C97 13.4087 97.6321 11.8826 98.7574 10.7574C99.8826 9.63214 101.409 9 103 9V9Z" stroke="black" stroke-opacity="0.67" stroke-linecap="round" stroke-linejoin="round"/>
<path d="M93 10H89V22H93V10Z" stroke="black" stroke-opacity="0.67" stroke-linecap="round" stroke-linejoin="round"/>
<path d="M91 7C92.1046 7 93 6.10457 93 5C93 3.89543 92.1046 3 91 3C89.8954 3 89 3.89543 89 5C89 6.10457 89.8954 7 91 7Z" stroke="black" stroke-opacity="0.67" stroke-linecap="round" stroke-linejoin="round"/>
</svg>
